<svg xmlns="http://www.w3.org/2000/svg" width="45.569" height="46.35" viewBox="0 0 45.569 46.35">
  <path id="dark" d="M55.68,36.83a1.711,1.711,0,0,1,.22,1.57A23.4,23.4,0,1,1,29.04,7.69a1.472,1.472,0,0,1,.36-.04,1.714,1.714,0,0,1,1.53.96,1.782,1.782,0,0,1-.19,1.89C28.25,13.62,27,17,27,23a16.9,16.9,0,0,0,9,14,19.476,19.476,0,0,0,8.38,1.82,17.531,17.531,0,0,0,8.96-2.48,1.675,1.675,0,0,1,.9-.25A1.755,1.755,0,0,1,55.68,36.83ZM33.83,50.68a20.115,20.115,0,0,0,17.13-9.61,20.527,20.527,0,0,1-6.58,1.07A20.769,20.769,0,0,1,25.73,12.23a20.078,20.078,0,0,0,8.1,38.45Z" transform="translate(-10.43 -7.65)" fill="#f5f5f4"/>
</svg>
