<svg xmlns="http://www.w3.org/2000/svg" width="52" height="52" viewBox="0 0 52 52">
  <path id="light" d="M32,19A13,13,0,1,1,19,32,13,13,0,0,1,32,19Zm0,22a9,9,0,1,0-9-9A9,9,0,0,0,32,41ZM34,8v6a2,2,0,0,1-4,0V8a2,2,0,0,1,4,0Zm16.385,8.444-4.243,4.243a2,2,0,0,1-2.828-2.828l4.243-4.243a2,2,0,1,1,2.828,2.828ZM56,34H50a2,2,0,0,1,0-4h6a2,2,0,0,1,0,4ZM47.556,50.385l-4.243-4.243a2,2,0,0,1,2.828-2.828l4.243,4.243a2,2,0,0,1-2.828,2.828ZM30,56V50a2,2,0,0,1,4,0v6a2,2,0,0,1-4,0ZM13.615,47.556l4.243-4.243a2,2,0,1,1,2.828,2.828l-4.243,4.243a2,2,0,0,1-2.828-2.828ZM8,30h6a2,2,0,0,1,0,4H8a2,2,0,0,1,0-4Zm8.444-16.385,4.243,4.243a2,2,0,1,1-2.828,2.828l-4.243-4.243a2,2,0,0,1,2.828-2.828Z" transform="translate(-6 -6)" fill="#0c0a09"/>
</svg>
